<?xml version="1.0" encoding="utf-8"?>
<!-- Generator: Adobe Illustrator 16.0.4, SVG Export Plug-In . SVG Version: 6.00 Build 0)  -->
<!DOCTYPE svg PUBLIC "-//W3C//DTD SVG 1.1//EN" "http://www.w3.org/Graphics/SVG/1.1/DTD/svg11.dtd">
<svg version="1.1" id="Capa_1" xmlns="http://www.w3.org/2000/svg" xmlns:xlink="http://www.w3.org/1999/xlink" x="0px" y="0px"
	 width="612px" height="792px" viewBox="0 0 612 792" enable-background="new 0 0 612 792" xml:space="preserve">
<path d="M306,127.944c37.128,0,71.91,7.038,104.346,21.114c32.438,14.076,60.792,33.252,85.068,57.528s43.452,52.632,57.528,85.068
	c14.074,32.436,21.112,67.218,21.112,104.346s-7.038,71.91-21.112,104.346c-14.076,32.438-33.252,60.792-57.528,85.068
	s-52.632,43.452-85.068,57.528C377.91,657.018,343.128,664.056,306,664.056s-71.91-7.038-104.346-21.112
	c-32.436-14.076-60.792-33.252-85.068-57.528s-43.35-52.632-57.222-85.068C45.492,467.91,38.556,433.128,38.556,396
	s6.936-71.91,20.808-104.346c13.872-32.436,32.946-60.792,57.222-85.068s52.632-43.452,85.068-57.528
	C234.09,134.982,268.872,127.944,306,127.944z M306,157.32c-33.048,0-64.056,6.222-93.024,18.666
	c-28.968,12.444-54.264,29.478-75.888,51.102s-38.658,46.92-51.102,75.888C73.542,331.944,67.32,362.952,67.32,396
	s6.222,64.056,18.666,93.024c12.444,28.968,29.478,54.264,51.102,75.888s46.92,38.658,75.888,51.102
	c28.968,12.444,59.976,18.666,93.024,18.666s64.056-6.222,93.024-18.666c28.968-12.442,54.264-29.478,75.888-51.102
	s38.658-46.92,51.102-75.888c12.444-28.97,18.666-59.978,18.666-93.024s-6.222-64.056-18.666-93.024
	c-12.442-28.968-29.478-54.264-51.102-75.888s-46.92-38.658-75.888-51.102C370.056,163.542,339.048,157.32,306,157.32z
	 M374.544,440.064c25.704-8.978,38.556-25.908,38.556-50.796c0-13.056-2.142-23.358-6.426-30.906
	c-4.284-7.548-11.118-13.77-20.502-18.666c-4.488-2.448-9.792-3.876-15.912-4.284c-6.12-0.408-12.646-0.51-19.584-0.306
	c-6.936,0.204-14.278,0.612-22.032,1.224c-7.752,0.612-15.504,0.918-23.254,0.918c-7.752,0-15.504-0.306-23.256-0.918
	c-7.752-0.612-15.096-1.02-22.032-1.224s-13.464-0.102-19.584,0.306c-6.12,0.408-11.424,1.836-15.912,4.284
	c-9.384,4.896-16.116,11.118-20.196,18.666c-4.08,7.548-6.12,17.85-6.12,30.906c0,24.888,12.852,41.82,38.556,50.796
	c4.488,1.224,9.384,2.446,14.688,3.672c4.488,0.814,10.098,1.632,16.83,2.446c6.732,0.816,14.586,1.226,23.562,1.226h26.928
	c8.568,0,16.32-0.408,23.258-1.226c6.936-0.814,12.852-1.632,17.748-2.446C365.568,442.512,370.464,441.288,374.544,440.064z
	 M447.984,351.324c0,13.056-1.43,25.398-4.284,37.026c-2.856,11.626-8.16,22.134-15.912,31.518s-18.462,17.136-32.13,23.256
	s-31.11,9.996-52.326,11.628c3.264,1.632,7.446,3.672,12.546,6.12s9.486,7.14,13.158,14.076c2.04,4.486,3.366,11.016,3.978,19.584
	c0.612,8.566,0.918,17.34,0.918,26.314c0,8.978-0.102,17.238-0.306,24.786s0.102,12.139,0.918,13.771
	c1.632,3.264,3.979,6.119,7.038,8.566c3.06,2.448,5.61,4.284,7.65,5.509c2.039,1.225,2.65,2.755,1.836,4.591
	c-0.816,1.836-3.672,2.958-8.568,3.364c-2.448,0-5.508-0.406-9.18-1.224c-3.672-0.815-7.142-2.244-10.404-4.284
	s-6.018-4.59-8.262-7.648c-2.244-3.062-3.366-7.038-3.366-11.936v-50.184c0-5.712-1.326-9.792-3.979-12.24
	c-2.65-2.448-5.404-4.08-8.262-4.896v66.097c0,11.832,1.428,19.584,4.284,23.256c1.224,1.632,2.346,3.366,3.366,5.202
	c1.02,1.836,1.632,3.366,1.836,4.59s-0.51,1.938-2.144,2.142c-1.632,0.204-4.69-0.306-9.18-1.528
	c-8.568-2.04-14.688-6.732-18.36-14.076c-3.672-7.344-5.508-15.096-5.508-23.256v-64.872H299.88v64.872
	c0,8.16-1.734,15.912-5.202,23.256c-3.468,7.344-9.69,12.036-18.666,14.076c-4.488,1.224-7.446,1.732-8.874,1.528
	c-1.428-0.202-2.142-0.918-2.142-2.142s0.612-2.754,1.836-4.59s2.448-3.57,3.672-5.202c0.816-1.632,1.734-4.488,2.754-8.568
	c1.02-4.079,1.53-8.976,1.53-14.688v-66.096c-2.856,0.814-5.508,2.446-7.956,4.896c-2.448,2.448-3.672,6.528-3.672,12.24v50.184
	c0,4.896-1.122,8.874-3.366,11.936c-2.244,3.06-4.998,5.608-8.262,7.648c-3.264,2.04-6.732,3.47-10.404,4.284
	c-3.672,0.816-6.732,1.224-9.18,1.224c-4.896-0.406-7.752-1.528-8.568-3.364s-0.204-3.366,1.836-4.59
	c2.04-1.226,4.59-3.062,7.65-5.51c3.06-2.446,5.406-5.304,7.038-8.566c0.816-2.04,1.122-7.446,0.918-16.22
	c-0.204-8.771-0.306-18.462-0.306-29.068c-3.264,1.224-7.548,2.04-12.852,2.448c-5.304,0.406-11.22,0-17.748-1.226
	c-11.016-2.04-19.38-5.608-25.092-10.71c-5.712-5.1-11.22-13.158-16.524-24.174c-2.856-5.304-6.018-9.69-9.486-13.158
	c-3.468-3.468-6.528-6.222-9.18-8.262c-2.652-2.04-4.692-3.774-6.12-5.202c-1.428-1.428-1.53-2.754-0.306-3.979
	c2.448-2.855,5.814-4.079,10.098-3.673c4.284,0.408,6.834,1.021,7.65,1.836c4.896,2.04,9.792,6.324,14.688,12.854
	s9.996,12.036,15.3,16.524c2.448,2.038,5.508,4.078,9.18,6.118s7.752,3.47,12.24,4.284c4.488,0.816,9.384,0.816,14.688,0
	c5.304-0.814,10.608-3.06,15.912-6.73c1.224-5.306,3.162-9.486,5.814-12.547c2.652-3.061,5.508-5.509,8.568-7.345
	s5.916-3.264,8.568-4.284c2.652-1.02,4.794-1.938,6.426-2.754c-22.44-1.632-40.8-5.404-55.08-11.32
	c-14.28-5.916-25.602-13.466-33.966-22.646c-8.364-9.18-14.076-19.686-17.136-31.518c-3.06-11.832-4.59-24.276-4.59-37.332
	c0-13.464,2.04-25.5,6.12-36.108c4.08-10.608,9.792-19.992,17.136-28.152c-3.264-9.792-4.386-20.094-3.366-30.906
	c1.02-10.812,3.162-20.502,6.426-29.07c15.504,0.816,28.458,4.08,38.862,9.792c10.404,5.712,17.646,10.404,21.726,14.076
	c17.544-4.896,35.7-7.344,54.468-7.344h4.284c17.544,0,34.478,2.04,50.796,6.12c4.488-3.672,11.832-8.16,22.032-13.464
	c10.2-5.304,22.85-8.364,37.944-9.18c3.264,8.16,5.406,17.34,6.426,27.54c1.021,10.2,0.306,19.992-2.142,29.376
	c8.16,8.16,14.482,17.85,18.972,29.07C445.74,324.294,447.984,337.044,447.984,351.324z M304.776,337.248h0.612H306H304.776z
	 M383.724,384.984c0,5.712-1.528,10.608-4.59,14.688c-3.06,4.08-6.834,6.12-11.321,6.12s-8.159-2.04-11.017-6.12
	c-2.854-4.08-4.284-8.976-4.284-14.688s1.43-10.608,4.284-14.688c2.856-4.08,6.528-6.12,11.017-6.12c4.487,0,8.263,2.04,11.321,6.12
	C382.194,374.376,383.724,379.272,383.724,384.984z M263.772,384.984c0,5.712-1.53,10.608-4.59,14.688s-6.834,6.12-11.322,6.12
	c-4.488,0-8.16-2.04-11.016-6.12c-2.856-4.08-4.284-8.976-4.284-14.688s1.428-10.608,4.284-14.688
	c2.856-4.08,6.528-6.12,11.016-6.12c4.488,0,8.262,2.04,11.322,6.12S263.772,379.272,263.772,384.984z"/>
</svg>
